<svg xmlns="http://www.w3.org/2000/svg" viewBox="0 0 256 256" role="img" aria-labelledby="title">
  <title>Spider Mesh app icon</title>
  <defs>
    <linearGradient id="bg" x1="0%" x2="100%" y1="0%" y2="100%">
      <stop offset="0%" stop-color="#8fd2ff" />
      <stop offset="100%" stop-color="#2f67c6" />
    </linearGradient>
  </defs>
  <rect width="256" height="256" rx="56" fill="url(#bg)" />
  <path
    d="M93 93C70 77 62 53 77 36M163 93C186 77 194 53 179 36"
    fill="none"
    stroke="#fff"
    stroke-linecap="round"
    stroke-linejoin="round"
    stroke-width="14"
  />
  <path
    d="M77 64C93 67 105 76 111 93M179 64C163 67 151 76 145 93"
    fill="none"
    stroke="#fff"
    stroke-linecap="round"
    stroke-linejoin="round"
    stroke-width="12"
    opacity="0.88"
  />
  <circle
    cx="128"
    cy="142"
    r="54"
    fill="rgba(255,255,255,0.12)"
    stroke="#fff"
    stroke-width="10"
  />
  <path
    d="M106 154C112 164 144 164 150 154"
    fill="none"
    stroke="#fff"
    stroke-linecap="round"
    stroke-width="10"
  />
  <circle cx="110" cy="132" r="8" fill="#fff" />
  <circle cx="146" cy="132" r="8" fill="#fff" />
  <path
    d="M124 145L128 149L132 145"
    fill="none"
    stroke="#fff"
    stroke-linecap="round"
    stroke-linejoin="round"
    stroke-width="8"
  />
</svg>
